<?xml version="1.0" encoding="UTF-8" standalone="no"?>
<!-- Created with Inkscape (http://www.inkscape.org/) -->

<svg
   xmlns:dc="http://purl.org/dc/elements/1.1/"
   xmlns:cc="http://creativecommons.org/ns#"
   xmlns:rdf="http://www.w3.org/1999/02/22-rdf-syntax-ns#"
   xmlns:svg="http://www.w3.org/2000/svg"
   xmlns="http://www.w3.org/2000/svg"
   xmlns:sodipodi="http://sodipodi.sourceforge.net/DTD/sodipodi-0.dtd"
   xmlns:inkscape="http://www.inkscape.org/namespaces/inkscape"
   id="svg4155"
   version="1.1"
   inkscape:version="0.91 r13725"
   xml:space="preserve"
   width="670.81"
   height="364.76691"
   viewBox="0 0 670.81 364.76691"
   sodipodi:docname="Figure3.svg"><metadata
     id="metadata4161"><rdf:RDF><cc:Work
         rdf:about=""><dc:format>image/svg+xml</dc:format><dc:type
           rdf:resource="http://purl.org/dc/dcmitype/StillImage" /><dc:title></dc:title></cc:Work></rdf:RDF></metadata><defs
     id="defs4159"><clipPath
       clipPathUnits="userSpaceOnUse"
       id="clipPath4171"><path
         d="M 0,0 468,0 468,324 0,324 0,0 Z"
         id="path4173"
         inkscape:connector-curvature="0" /></clipPath></defs><sodipodi:namedview
     pagecolor="#ffffff"
     bordercolor="#666666"
     borderopacity="1"
     objecttolerance="10"
     gridtolerance="10"
     guidetolerance="10"
     inkscape:pageopacity="0"
     inkscape:pageshadow="2"
     inkscape:window-width="1921"
     inkscape:window-height="1043"
     id="namedview4157"
     showgrid="false"
     fit-margin-top="10"
     fit-margin-left="10"
     fit-margin-right="10"
     fit-margin-bottom="10"
     inkscape:zoom="1.2239437"
     inkscape:cx="212.28204"
     inkscape:cy="186.92313"
     inkscape:window-x="0"
     inkscape:window-y="0"
     inkscape:window-maximized="0"
     inkscape:current-layer="g4163" /><g
     id="g4163"
     inkscape:groupmode="layer"
     inkscape:label="Figure3"
     transform="matrix(1.25,0,0,-1.25,115.63771,355.34375)"><g
       id="g4175"
       transform="translate(-17,-31)" /><path
       d="M 217,254.3 107.2,176.9"
       style="fill:none;stroke:#000000;stroke-width:0.75;stroke-linecap:round;stroke-linejoin:round;stroke-miterlimit:10;stroke-dasharray:none;stroke-opacity:1"
       id="path4179"
       inkscape:connector-curvature="0" /><path
       d="M 217,254.3 326.8,176.9"
       style="fill:none;stroke:#000000;stroke-width:0.75;stroke-linecap:round;stroke-linejoin:round;stroke-miterlimit:10;stroke-dasharray:none;stroke-opacity:1"
       id="path4181"
       inkscape:connector-curvature="0" /><rect
       style="opacity:1;fill:#ffffff;fill-opacity:0.99607843;stroke:none;stroke-width:3.4000001;stroke-linecap:butt;stroke-linejoin:miter;stroke-miterlimit:4;stroke-dasharray:none;stroke-dashoffset:0;stroke-opacity:1"
       id="rect5043"
       width="205.20906"
       height="18.02512"
       x="117.39437"
       y="-224.62073"
       transform="scale(1,-1)" /><path
       d="m 151.53,254.3 1.31,4.3 1.31,1.75 1.31,1.32 1.31,1.1 1.31,0.95 1.31,0.84 1.31,0.76 1.31,0.7 1.31,0.64 1.31,0.6 1.31,0.56 1.31,0.52 1.31,0.49 1.3,0.46 1.31,0.44 1.31,0.41 1.31,0.39 1.31,0.37 1.31,0.35 1.31,0.33 0,0 6.55,1.43 6.54,1.09 6.55,0.81 6.55,0.55 6.54,0.33 6.55,0.11 6.55,-0.11 6.54,-0.33 6.55,-0.55 6.55,-0.81 6.54,-1.09 6.55,-1.43 0,0 1.31,-0.33 1.31,-0.35 1.31,-0.37 1.31,-0.39 1.31,-0.41 1.31,-0.44 1.3,-0.46 1.31,-0.49 1.31,-0.52 1.31,-0.56 1.31,-0.6 1.31,-0.64 1.31,-0.7 1.31,-0.76 1.31,-0.84 1.31,-0.95 1.31,-1.1 1.31,-1.32 1.31,-1.75 1.31,-4.3 0,0 -1.31,-4.3 -1.31,-1.75 -1.31,-1.32 -1.31,-1.1 -1.31,-0.95 -1.31,-0.84 -1.31,-0.76 -1.31,-0.7 -1.31,-0.64 -1.31,-0.6 -1.31,-0.56 -1.31,-0.52 -1.31,-0.49 -1.3,-0.46 -1.31,-0.44 -1.31,-0.41 -1.31,-0.39 -1.31,-0.37 -1.31,-0.35 -1.31,-0.33 0,0 -6.55,-1.43 -6.54,-1.09 -6.55,-0.81 -6.55,-0.55 -6.54,-0.33 -6.55,-0.11 -6.55,0.11 -6.54,0.33 -6.55,0.55 -6.55,0.81 -6.54,1.09 -6.55,1.43 0,0 -1.31,0.33 -1.31,0.35 -1.31,0.37 -1.31,0.39 -1.31,0.41 -1.31,0.44 -1.3,0.46 -1.31,0.49 -1.31,0.52 -1.31,0.56 -1.31,0.6 -1.31,0.64 -1.31,0.7 -1.31,0.76 -1.31,0.84 -1.31,0.95 -1.31,1.1 -1.31,1.32 -1.31,1.75 -1.31,4.3 z"
       style="fill:#ffffff;fill-opacity:1;fill-rule:nonzero;stroke:#000000;stroke-width:0.75;stroke-linecap:round;stroke-linejoin:round;stroke-miterlimit:10;stroke-dasharray:none;stroke-opacity:1"
       id="path4183"
       inkscape:connector-curvature="0" /><text
       transform="scale(1,-1)"
       style="font-variant:normal;font-weight:normal;font-size:12px;font-family:Helvetica;-inkscape-font-specification:Helvetica;writing-mode:lr-tb;fill:#000000;fill-opacity:1;fill-rule:nonzero;stroke:none"
       id="text4189"
       x="191.81"
       y="-242.78999"><tspan
         x="191.81 198.48199 201.81799 208.826 212.162 218.834 222.17 228.842 235.51399"
         y="-242.78999"
         sodipodi:role="line"
         id="tspan4191">p &lt; 0.001</tspan></text>
<g
       id="g4199"
       transform="translate(-17,-31)" /><g
       id="g4201"
       transform="translate(-17,-31)" /><g
       id="g4203"
       transform="translate(-17,-31)"><path
         inkscape:connector-curvature="0"
         id="path4205"
         style="fill:#ffffff;fill-opacity:1;fill-rule:nonzero;stroke:none"
         d="m 173.1,239.4 12,0 0,14.4 -12,0 0,-14.4 z" /><text
         id="text4207"
         style="font-variant:normal;font-weight:normal;font-size:12px;font-family:Helvetica;-inkscape-font-specification:Helvetica;writing-mode:lr-tb;fill:#000000;fill-opacity:1;fill-rule:nonzero;stroke:none"
         transform="scale(1,-1)"
         x="157.38579"
         y="-242.28999"><tspan
           id="tspan4209"
           sodipodi:role="line"
           y="-242.28999"
           x="157.38579">Initiating</tspan></text>
</g><g
       id="g4211"
       transform="translate(-17,-31)"><path
         inkscape:connector-curvature="0"
         id="path4213"
         style="fill:#ffffff;fill-opacity:1;fill-rule:nonzero;stroke:none"
         d="m 268.39,239.4 41.02,0 0,14.4 -41.02,0 0,-14.4 z" /><text
         id="text4215"
         style="font-variant:normal;font-weight:normal;font-size:12px;font-family:Helvetica;-inkscape-font-specification:Helvetica;writing-mode:lr-tb;fill:#000000;fill-opacity:1;fill-rule:nonzero;stroke:none"
         transform="scale(1,-1)"
         x="258.68417"
         y="-242.28999"><tspan
           id="tspan4217"
           sodipodi:role="line"
           y="-242.28999"
           x="258.68417 267.34818 274.02017 280.69217">Non−Initiating</tspan></text>
</g><path
       d="M 107.2,176.9 52.3,99.5"
       style="fill:none;stroke:#000000;stroke-width:0.75;stroke-linecap:round;stroke-linejoin:round;stroke-miterlimit:10;stroke-dasharray:none;stroke-opacity:1"
       id="path4221"
       inkscape:connector-curvature="0" /><path
       d="M 107.2,176.9 162.1,99.5"
       style="fill:none;stroke:#000000;stroke-width:0.75;stroke-linecap:round;stroke-linejoin:round;stroke-miterlimit:10;stroke-dasharray:none;stroke-opacity:1"
       id="path4223"
       inkscape:connector-curvature="0" /><path
       d="m 41.73,176.9 1.31,4.3 1.31,1.75 1.31,1.32 1.31,1.1 1.31,0.95 1.31,0.84 1.31,0.76 1.31,0.7 1.31,0.64 1.31,0.6 1.31,0.56 1.31,0.52 1.31,0.49 1.3,0.46 1.31,0.44 1.31,0.41 1.31,0.39 1.31,0.37 1.31,0.35 1.31,0.33 0,0 6.55,1.43 6.54,1.09 6.55,0.81 6.55,0.55 6.54,0.33 6.55,0.11 6.55,-0.11 6.54,-0.33 6.55,-0.55 6.55,-0.81 6.54,-1.09 6.55,-1.43 0,0 1.31,-0.33 1.31,-0.35 1.31,-0.37 1.31,-0.39 1.31,-0.41 1.31,-0.44 1.3,-0.46 1.31,-0.49 1.31,-0.52 1.31,-0.56 1.31,-0.6 1.31,-0.64 1.31,-0.7 1.31,-0.76 1.31,-0.84 1.31,-0.95 1.31,-1.1 1.31,-1.32 1.31,-1.75 1.31,-4.3 0,0 -1.31,-4.3 -1.31,-1.75 -1.31,-1.32 -1.31,-1.1 -1.31,-0.95 -1.31,-0.84 -1.31,-0.76 -1.31,-0.7 -1.31,-0.64 -1.31,-0.6 -1.31,-0.56 -1.31,-0.52 -1.31,-0.49 -1.3,-0.46 -1.31,-0.44 -1.31,-0.41 -1.31,-0.39 -1.31,-0.37 -1.31,-0.35 -1.31,-0.33 0,0 -6.55,-1.43 -6.54,-1.09 -6.55,-0.81 -6.55,-0.55 -6.54,-0.33 -6.55,-0.11 -6.55,0.11 -6.54,0.33 -6.55,0.55 -6.55,0.81 -6.54,1.09 -6.55,1.43 0,0 -1.31,0.33 -1.31,0.35 -1.31,0.37 -1.31,0.39 -1.31,0.41 -1.31,0.44 -1.3,0.46 -1.31,0.49 -1.31,0.52 -1.31,0.56 -1.31,0.6 -1.31,0.64 -1.31,0.7 -1.31,0.76 -1.31,0.84 -1.31,0.95 -1.31,1.1 -1.31,1.32 -1.31,1.75 -1.31,4.3 z"
       style="fill:#ffffff;fill-opacity:1;fill-rule:nonzero;stroke:#000000;stroke-width:0.75;stroke-linecap:round;stroke-linejoin:round;stroke-miterlimit:10;stroke-dasharray:none;stroke-opacity:1"
       id="path4225"
       inkscape:connector-curvature="0" /><text
       transform="scale(1,-1)"
       style="font-variant:normal;font-weight:normal;font-size:12px;font-family:Helvetica;-inkscape-font-specification:Helvetica;writing-mode:lr-tb;fill:#000000;fill-opacity:1;fill-rule:nonzero;stroke:none"
       id="text4227"
       x="53.604721"
       y="-179.78999"><tspan
         x="53.604721"
         sodipodi:role="line"
         id="tspan4229"
         y="-179.78999">Response Phoneme</tspan></text>
<text
       transform="scale(1,-1)"
       style="font-variant:normal;font-weight:normal;font-size:12px;font-family:Helvetica;-inkscape-font-specification:Helvetica;writing-mode:lr-tb;fill:#000000;fill-opacity:1;fill-rule:nonzero;stroke:none"
       id="text4231"
       x="82.010002"
       y="-165.39"><tspan
         x="82.010002 88.681999 92.017998 99.026001 102.362 109.034 112.37 119.042 125.714"
         y="-165.39"
         sodipodi:role="line"
         id="tspan4233">p = 0.005</tspan></text>
<g
       id="g4241"
       transform="translate(-17,-31)" /><g
       id="g4243"
       transform="translate(-17,-31)" /><g
       id="g4245"
       transform="translate(-17,-31)"><path
         inkscape:connector-curvature="0"
         id="path4247"
         style="fill:#ffffff;fill-opacity:1;fill-rule:nonzero;stroke:none"
         d="m 89.08,162 15.34,0 0,14.4 -15.34,0 0,-14.4 z" /><text
         id="text4249"
         style="font-variant:normal;font-weight:normal;font-size:12px;font-family:Helvetica;-inkscape-font-specification:Helvetica;writing-mode:lr-tb;fill:#000000;fill-opacity:1;fill-rule:nonzero;stroke:none"
         transform="matrix(1,0,0,-1,89.08,164.89)"><tspan
           id="tspan4251"
           sodipodi:role="line"
           y="0"
           x="0 8.6639996">wh</tspan></text>
</g><g
       id="g4253"
       transform="translate(-17,-31)"><path
         inkscape:connector-curvature="0"
         id="path4255"
         style="fill:#ffffff;fill-opacity:1;fill-rule:nonzero;stroke:none"
         d="m 117.38,162 68.54,0 0,14.4 -68.54,0 0,-14.4 z" /><text
         id="text4257"
         style="font-variant:normal;font-weight:normal;font-size:12px;font-family:Helvetica;-inkscape-font-specification:Helvetica;writing-mode:lr-tb;fill:#000000;fill-opacity:1;fill-rule:nonzero;stroke:none"
         transform="matrix(1,0,0,-1,117.38,164.89)"><tspan
           id="tspan4259"
           sodipodi:role="line"
           y="0"
           x="0 4.0079999 10.68 17.351999 24.024 30.516001 33.852001 37.188 43.860001 47.195999 53.868 60.540001 64.536003">{none, other}</tspan></text>
</g><path
       d="m -2.6,5 109.8,0 0,111.6 -109.8,0 0,-111.6 z"
       style="fill:#ffffff;fill-opacity:1;fill-rule:nonzero;stroke:none"
       id="path4263"
       inkscape:connector-curvature="0" /><text
       transform="scale(1,-1)"
       style="font-variant:normal;font-weight:normal;font-size:12px;font-family:Helvetica;-inkscape-font-specification:Helvetica;writing-mode:lr-tb;fill:#000000;fill-opacity:1;fill-rule:nonzero;stroke:none"
       id="text4265"
       x="-20.890003"
       y="-105.09"><tspan
         x="21.134005 25.130011 31.802019 35.138016 42.146015 45.482021 52.154018 58.826023 65.498024"
         sodipodi:role="line"
         id="tspan4267">(n = 240)</tspan></text>
<g
       id="g4269"
       transform="translate(-17,-31)"><path
         inkscape:connector-curvature="0"
         id="path4271"
         style="fill:#4d4d4d;fill-opacity:1;fill-rule:nonzero;stroke:#000000;stroke-width:0.75;stroke-linecap:round;stroke-linejoin:round;stroke-miterlimit:10;stroke-dasharray:none;stroke-opacity:1"
         d="m 53.4,36 17.4,0 0,16.19 -17.4,0 0,-16.19 z" /><path
         inkscape:connector-curvature="0"
         id="path4273"
         style="fill:none;stroke:#000000;stroke-width:0.75;stroke-linecap:round;stroke-linejoin:round;stroke-miterlimit:10;stroke-dasharray:none;stroke-opacity:1"
         d="m 88.2,36 0,83.99" /><path
         inkscape:connector-curvature="0"
         id="path4275"
         style="fill:none;stroke:#000000;stroke-width:0.75;stroke-linecap:round;stroke-linejoin:round;stroke-miterlimit:10;stroke-dasharray:none;stroke-opacity:1"
         d="m 88.2,36 7.2,0" /><path
         inkscape:connector-curvature="0"
         id="path4277"
         style="fill:none;stroke:#000000;stroke-width:0.75;stroke-linecap:round;stroke-linejoin:round;stroke-miterlimit:10;stroke-dasharray:none;stroke-opacity:1"
         d="m 88.2,57 7.2,0" /><path
         inkscape:connector-curvature="0"
         id="path4279"
         style="fill:none;stroke:#000000;stroke-width:0.75;stroke-linecap:round;stroke-linejoin:round;stroke-miterlimit:10;stroke-dasharray:none;stroke-opacity:1"
         d="m 88.2,77.99 7.2,0" /><path
         inkscape:connector-curvature="0"
         id="path4281"
         style="fill:none;stroke:#000000;stroke-width:0.75;stroke-linecap:round;stroke-linejoin:round;stroke-miterlimit:10;stroke-dasharray:none;stroke-opacity:1"
         d="m 88.2,98.99 7.2,0" /><path
         inkscape:connector-curvature="0"
         id="path4283"
         style="fill:none;stroke:#000000;stroke-width:0.75;stroke-linecap:round;stroke-linejoin:round;stroke-miterlimit:10;stroke-dasharray:none;stroke-opacity:1"
         d="m 88.2,119.99 7.2,0" /><text
         id="text4285"
         style="font-variant:normal;font-weight:normal;font-size:12px;font-family:Helvetica;-inkscape-font-specification:Helvetica;writing-mode:lr-tb;fill:#000000;fill-opacity:1;fill-rule:nonzero;stroke:none"
         transform="matrix(1,0,0,-1,102.6,31.69)"><tspan
           id="tspan4287"
           y="0"
           x="0">0</tspan></text>
<text
         id="text4289"
         style="font-variant:normal;font-weight:normal;font-size:12px;font-family:Helvetica;-inkscape-font-specification:Helvetica;writing-mode:lr-tb;fill:#000000;fill-opacity:1;fill-rule:nonzero;stroke:none"
         transform="matrix(1,0,0,-1,102.6,52.69)"><tspan
           id="tspan4291"
           sodipodi:role="line"
           y="0"
           x="0 6.6719999 10.008">0.2</tspan></text>
<text
         id="text4293"
         style="font-variant:normal;font-weight:normal;font-size:12px;font-family:Helvetica;-inkscape-font-specification:Helvetica;writing-mode:lr-tb;fill:#000000;fill-opacity:1;fill-rule:nonzero;stroke:none"
         transform="matrix(1,0,0,-1,102.6,73.69)"><tspan
           id="tspan4295"
           sodipodi:role="line"
           y="0"
           x="0 6.6719999 10.008">0.4</tspan></text>
<text
         id="text4297"
         style="font-variant:normal;font-weight:normal;font-size:12px;font-family:Helvetica;-inkscape-font-specification:Helvetica;writing-mode:lr-tb;fill:#000000;fill-opacity:1;fill-rule:nonzero;stroke:none"
         transform="matrix(1,0,0,-1,102.6,94.68)"><tspan
           id="tspan4299"
           sodipodi:role="line"
           y="0"
           x="0 6.6719999 10.008">0.6</tspan></text>
<text
         id="text4301"
         style="font-variant:normal;font-weight:normal;font-size:12px;font-family:Helvetica;-inkscape-font-specification:Helvetica;writing-mode:lr-tb;fill:#000000;fill-opacity:1;fill-rule:nonzero;stroke:none"
         transform="matrix(1,0,0,-1,102.6,115.68)"><tspan
           id="tspan4303"
           sodipodi:role="line"
           y="0"
           x="0 6.6719999 10.008">0.8</tspan></text>
<path
         inkscape:connector-curvature="0"
         id="path4305"
         style="fill:none;stroke:#000000;stroke-width:0.75;stroke-linecap:round;stroke-linejoin:round;stroke-miterlimit:10;stroke-dasharray:none;stroke-opacity:1"
         d="m 36,36 52.2,0 0,97.2 -52.2,0 0,-97.2 z" /></g><g
       id="g4307"
       transform="translate(-17,-31)" /><path
       d="m 107.2,5 109.8,0 0,111.6 -109.8,0 0,-111.6 z"
       style="fill:#ffffff;fill-opacity:1;fill-rule:nonzero;stroke:none"
       id="path4311"
       inkscape:connector-curvature="0" /><text
       transform="scale(1,-1)"
       style="font-variant:normal;font-weight:normal;font-size:12px;font-family:Helvetica;-inkscape-font-specification:Helvetica;writing-mode:lr-tb;fill:#000000;fill-opacity:1;fill-rule:nonzero;stroke:none"
       id="text4313"
       x="88.910019"
       y="-105.09"><tspan
         x="130.93393 134.92993 141.60194 144.93794 151.94594 155.28194 161.95393 168.62595 175.29794"
         sodipodi:role="line"
         id="tspan4315">(n = 360)</tspan></text>
<g
       id="g4317"
       transform="translate(-17,-31)"><path
         inkscape:connector-curvature="0"
         id="path4319"
         style="fill:#4d4d4d;fill-opacity:1;fill-rule:nonzero;stroke:#000000;stroke-width:0.75;stroke-linecap:round;stroke-linejoin:round;stroke-miterlimit:10;stroke-dasharray:none;stroke-opacity:1"
         d="m 163.2,36 17.4,0 0,7.29 -17.4,0 0,-7.29 z" /><path
         inkscape:connector-curvature="0"
         id="path4321"
         style="fill:none;stroke:#000000;stroke-width:0.75;stroke-linecap:round;stroke-linejoin:round;stroke-miterlimit:10;stroke-dasharray:none;stroke-opacity:1"
         d="m 198,36 0,83.99" /><path
         inkscape:connector-curvature="0"
         id="path4323"
         style="fill:none;stroke:#000000;stroke-width:0.75;stroke-linecap:round;stroke-linejoin:round;stroke-miterlimit:10;stroke-dasharray:none;stroke-opacity:1"
         d="m 198,36 7.2,0" /><path
         inkscape:connector-curvature="0"
         id="path4325"
         style="fill:none;stroke:#000000;stroke-width:0.75;stroke-linecap:round;stroke-linejoin:round;stroke-miterlimit:10;stroke-dasharray:none;stroke-opacity:1"
         d="m 198,57 7.2,0" /><path
         inkscape:connector-curvature="0"
         id="path4327"
         style="fill:none;stroke:#000000;stroke-width:0.75;stroke-linecap:round;stroke-linejoin:round;stroke-miterlimit:10;stroke-dasharray:none;stroke-opacity:1"
         d="m 198,77.99 7.2,0" /><path
         inkscape:connector-curvature="0"
         id="path4329"
         style="fill:none;stroke:#000000;stroke-width:0.75;stroke-linecap:round;stroke-linejoin:round;stroke-miterlimit:10;stroke-dasharray:none;stroke-opacity:1"
         d="m 198,98.99 7.2,0" /><path
         inkscape:connector-curvature="0"
         id="path4331"
         style="fill:none;stroke:#000000;stroke-width:0.75;stroke-linecap:round;stroke-linejoin:round;stroke-miterlimit:10;stroke-dasharray:none;stroke-opacity:1"
         d="m 198,119.99 7.2,0" /><text
         id="text4333"
         style="font-variant:normal;font-weight:normal;font-size:12px;font-family:Helvetica;-inkscape-font-specification:Helvetica;writing-mode:lr-tb;fill:#000000;fill-opacity:1;fill-rule:nonzero;stroke:none"
         transform="matrix(1,0,0,-1,212.4,31.69)"><tspan
           id="tspan4335"
           y="0"
           x="0">0</tspan></text>
<text
         id="text4337"
         style="font-variant:normal;font-weight:normal;font-size:12px;font-family:Helvetica;-inkscape-font-specification:Helvetica;writing-mode:lr-tb;fill:#000000;fill-opacity:1;fill-rule:nonzero;stroke:none"
         transform="matrix(1,0,0,-1,212.4,52.69)"><tspan
           id="tspan4339"
           sodipodi:role="line"
           y="0"
           x="0 6.6719999 10.008">0.2</tspan></text>
<text
         id="text4341"
         style="font-variant:normal;font-weight:normal;font-size:12px;font-family:Helvetica;-inkscape-font-specification:Helvetica;writing-mode:lr-tb;fill:#000000;fill-opacity:1;fill-rule:nonzero;stroke:none"
         transform="matrix(1,0,0,-1,212.4,73.69)"><tspan
           id="tspan4343"
           sodipodi:role="line"
           y="0"
           x="0 6.6719999 10.008">0.4</tspan></text>
<text
         id="text4345"
         style="font-variant:normal;font-weight:normal;font-size:12px;font-family:Helvetica;-inkscape-font-specification:Helvetica;writing-mode:lr-tb;fill:#000000;fill-opacity:1;fill-rule:nonzero;stroke:none"
         transform="matrix(1,0,0,-1,212.4,94.68)"><tspan
           id="tspan4347"
           sodipodi:role="line"
           y="0"
           x="0 6.6719999 10.008">0.6</tspan></text>
<text
         id="text4349"
         style="font-variant:normal;font-weight:normal;font-size:12px;font-family:Helvetica;-inkscape-font-specification:Helvetica;writing-mode:lr-tb;fill:#000000;fill-opacity:1;fill-rule:nonzero;stroke:none"
         transform="matrix(1,0,0,-1,212.4,115.68)"><tspan
           id="tspan4351"
           sodipodi:role="line"
           y="0"
           x="0 6.6719999 10.008">0.8</tspan></text>
<path
         inkscape:connector-curvature="0"
         id="path4353"
         style="fill:none;stroke:#000000;stroke-width:0.75;stroke-linecap:round;stroke-linejoin:round;stroke-miterlimit:10;stroke-dasharray:none;stroke-opacity:1"
         d="m 145.8,36 52.2,0 0,97.2 -52.2,0 0,-97.2 z" /></g><g
       id="g4355"
       transform="translate(-17,-31)" /><path
       d="M 326.8,176.9 271.9,99.5"
       style="fill:none;stroke:#000000;stroke-width:0.75;stroke-linecap:round;stroke-linejoin:round;stroke-miterlimit:10;stroke-dasharray:none;stroke-opacity:1"
       id="path4359"
       inkscape:connector-curvature="0" /><path
       d="M 326.8,176.9 381.7,99.5"
       style="fill:none;stroke:#000000;stroke-width:0.75;stroke-linecap:round;stroke-linejoin:round;stroke-miterlimit:10;stroke-dasharray:none;stroke-opacity:1"
       id="path4361"
       inkscape:connector-curvature="0" /><path
       d="m 261.33,176.9 1.31,4.3 1.31,1.75 1.31,1.32 1.31,1.1 1.31,0.95 1.31,0.84 1.31,0.76 1.31,0.7 1.31,0.64 1.31,0.6 1.31,0.56 1.31,0.52 1.31,0.49 1.3,0.46 1.31,0.44 1.31,0.41 1.31,0.39 1.31,0.37 1.31,0.35 1.31,0.33 0,0 6.55,1.43 6.54,1.09 6.55,0.81 6.55,0.55 6.54,0.33 6.55,0.11 6.55,-0.11 6.54,-0.33 6.55,-0.55 6.55,-0.81 6.54,-1.09 6.55,-1.43 0,0 1.31,-0.33 1.31,-0.35 1.31,-0.37 1.31,-0.39 1.31,-0.41 1.31,-0.44 1.3,-0.46 1.31,-0.49 1.31,-0.52 1.31,-0.56 1.31,-0.6 1.31,-0.64 1.31,-0.7 1.31,-0.76 1.31,-0.84 1.31,-0.95 1.31,-1.1 1.31,-1.32 1.31,-1.75 1.31,-4.3 0,0 -1.31,-4.3 -1.31,-1.75 -1.31,-1.32 -1.31,-1.1 -1.31,-0.95 -1.31,-0.84 -1.31,-0.76 -1.31,-0.7 -1.31,-0.64 -1.31,-0.6 -1.31,-0.56 -1.31,-0.52 -1.31,-0.49 -1.3,-0.46 -1.31,-0.44 -1.31,-0.41 -1.31,-0.39 -1.31,-0.37 -1.31,-0.35 -1.31,-0.33 0,0 -6.55,-1.43 -6.54,-1.09 -6.55,-0.81 -6.55,-0.55 -6.54,-0.33 -6.55,-0.11 -6.55,0.11 -6.54,0.33 -6.55,0.55 -6.55,0.81 -6.54,1.09 -6.55,1.43 0,0 -1.31,0.33 -1.31,0.35 -1.31,0.37 -1.31,0.39 -1.31,0.41 -1.31,0.44 -1.3,0.46 -1.31,0.49 -1.31,0.52 -1.31,0.56 -1.31,0.6 -1.31,0.64 -1.31,0.7 -1.31,0.76 -1.31,0.84 -1.31,0.95 -1.31,1.1 -1.31,1.32 -1.31,1.75 -1.31,4.3 z"
       style="fill:#ffffff;fill-opacity:1;fill-rule:nonzero;stroke:#000000;stroke-width:0.75;stroke-linecap:round;stroke-linejoin:round;stroke-miterlimit:10;stroke-dasharray:none;stroke-opacity:1"
       id="path4363"
       inkscape:connector-curvature="0" /><text
       transform="scale(1,-1)"
       style="font-variant:normal;font-weight:normal;font-size:12px;font-family:Helvetica;-inkscape-font-specification:Helvetica;writing-mode:lr-tb;fill:#000000;fill-opacity:1;fill-rule:nonzero;stroke:none"
       id="text4369"
       x="301.60999"
       y="-165.39"><tspan
         x="301.60999 308.28201 311.61801 318.62601 321.96201 328.634 331.97 338.642 345.314"
         y="-165.39"
         sodipodi:role="line"
         id="tspan4371">p &lt; 0.001</tspan></text>
<g
       id="g4379"
       transform="translate(-17,-31)" /><g
       id="g4381"
       transform="translate(-17,-31)" /><g
       id="g4383"
       transform="translate(-17,-31)"><path
         inkscape:connector-curvature="0"
         id="path4385"
         style="fill:#ffffff;fill-opacity:1;fill-rule:nonzero;stroke:none"
         d="m 308.68,162 15.34,0 0,14.4 -15.34,0 0,-14.4 z" /><text
         id="text4387"
         style="font-variant:normal;font-weight:normal;font-size:12px;font-family:Helvetica;-inkscape-font-specification:Helvetica;writing-mode:lr-tb;fill:#000000;fill-opacity:1;fill-rule:nonzero;stroke:none"
         transform="matrix(1,0,0,-1,308.68,164.89)"><tspan
           id="tspan4389"
           sodipodi:role="line"
           y="0"
           x="0 8.6639996">wh</tspan></text>
</g><g
       id="g4391"
       transform="translate(-17,-31)"><path
         inkscape:connector-curvature="0"
         id="path4393"
         style="fill:#ffffff;fill-opacity:1;fill-rule:nonzero;stroke:none"
         d="m 336.98,162 68.54,0 0,14.4 -68.54,0 0,-14.4 z" /><text
         id="text4395"
         style="font-variant:normal;font-weight:normal;font-size:12px;font-family:Helvetica;-inkscape-font-specification:Helvetica;writing-mode:lr-tb;fill:#000000;fill-opacity:1;fill-rule:nonzero;stroke:none"
         transform="matrix(1,0,0,-1,336.98,164.89)"><tspan
           id="tspan4397"
           sodipodi:role="line"
           y="0"
           x="0 4.0079999 10.68 17.351999 24.024 30.516001 33.852001 37.188 43.860001 47.195999 53.868 60.540001 64.536003">{none, other}</tspan></text>
</g><path
       d="m 217,5 109.8,0 0,111.6 -109.8,0 L 217,5 Z"
       style="fill:#ffffff;fill-opacity:1;fill-rule:nonzero;stroke:none"
       id="path4401"
       inkscape:connector-curvature="0" /><text
       transform="scale(1,-1)"
       style="font-variant:normal;font-weight:normal;font-size:12px;font-family:Helvetica;-inkscape-font-specification:Helvetica;writing-mode:lr-tb;fill:#000000;fill-opacity:1;fill-rule:nonzero;stroke:none"
       id="text4403"
       x="198.70993"
       y="-105.09"><tspan
         x="240.73393 244.72993 251.40193 254.73793 261.74591 265.08191 271.75391 278.42593 285.09793"
         sodipodi:role="line"
         id="tspan4405">(n = 240)</tspan></text>
<g
       id="g4407"
       transform="translate(-17,-31)"><path
         inkscape:connector-curvature="0"
         id="path4409"
         style="fill:#4d4d4d;fill-opacity:1;fill-rule:nonzero;stroke:#000000;stroke-width:0.75;stroke-linecap:round;stroke-linejoin:round;stroke-miterlimit:10;stroke-dasharray:none;stroke-opacity:1"
         d="m 273,36 17.4,0 0,88.36 -17.4,0 0,-88.36 z" /><path
         inkscape:connector-curvature="0"
         id="path4411"
         style="fill:none;stroke:#000000;stroke-width:0.75;stroke-linecap:round;stroke-linejoin:round;stroke-miterlimit:10;stroke-dasharray:none;stroke-opacity:1"
         d="m 307.8,36 0,83.99" /><path
         inkscape:connector-curvature="0"
         id="path4413"
         style="fill:none;stroke:#000000;stroke-width:0.75;stroke-linecap:round;stroke-linejoin:round;stroke-miterlimit:10;stroke-dasharray:none;stroke-opacity:1"
         d="m 307.8,36 7.2,0" /><path
         inkscape:connector-curvature="0"
         id="path4415"
         style="fill:none;stroke:#000000;stroke-width:0.75;stroke-linecap:round;stroke-linejoin:round;stroke-miterlimit:10;stroke-dasharray:none;stroke-opacity:1"
         d="m 307.8,57 7.2,0" /><path
         inkscape:connector-curvature="0"
         id="path4417"
         style="fill:none;stroke:#000000;stroke-width:0.75;stroke-linecap:round;stroke-linejoin:round;stroke-miterlimit:10;stroke-dasharray:none;stroke-opacity:1"
         d="m 307.8,77.99 7.2,0" /><path
         inkscape:connector-curvature="0"
         id="path4419"
         style="fill:none;stroke:#000000;stroke-width:0.75;stroke-linecap:round;stroke-linejoin:round;stroke-miterlimit:10;stroke-dasharray:none;stroke-opacity:1"
         d="m 307.8,98.99 7.2,0" /><path
         inkscape:connector-curvature="0"
         id="path4421"
         style="fill:none;stroke:#000000;stroke-width:0.75;stroke-linecap:round;stroke-linejoin:round;stroke-miterlimit:10;stroke-dasharray:none;stroke-opacity:1"
         d="m 307.8,119.99 7.2,0" /><text
         id="text4423"
         style="font-variant:normal;font-weight:normal;font-size:12px;font-family:Helvetica;-inkscape-font-specification:Helvetica;writing-mode:lr-tb;fill:#000000;fill-opacity:1;fill-rule:nonzero;stroke:none"
         transform="matrix(1,0,0,-1,322.2,31.69)"><tspan
           id="tspan4425"
           y="0"
           x="0">0</tspan></text>
<text
         id="text4427"
         style="font-variant:normal;font-weight:normal;font-size:12px;font-family:Helvetica;-inkscape-font-specification:Helvetica;writing-mode:lr-tb;fill:#000000;fill-opacity:1;fill-rule:nonzero;stroke:none"
         transform="matrix(1,0,0,-1,322.2,52.69)"><tspan
           id="tspan4429"
           sodipodi:role="line"
           y="0"
           x="0 6.6719999 10.008">0.2</tspan></text>
<text
         id="text4431"
         style="font-variant:normal;font-weight:normal;font-size:12px;font-family:Helvetica;-inkscape-font-specification:Helvetica;writing-mode:lr-tb;fill:#000000;fill-opacity:1;fill-rule:nonzero;stroke:none"
         transform="matrix(1,0,0,-1,322.2,73.69)"><tspan
           id="tspan4433"
           sodipodi:role="line"
           y="0"
           x="0 6.6719999 10.008">0.4</tspan></text>
<text
         id="text4435"
         style="font-variant:normal;font-weight:normal;font-size:12px;font-family:Helvetica;-inkscape-font-specification:Helvetica;writing-mode:lr-tb;fill:#000000;fill-opacity:1;fill-rule:nonzero;stroke:none"
         transform="matrix(1,0,0,-1,322.2,94.68)"><tspan
           id="tspan4437"
           sodipodi:role="line"
           y="0"
           x="0 6.6719999 10.008">0.6</tspan></text>
<text
         id="text4439"
         style="font-variant:normal;font-weight:normal;font-size:12px;font-family:Helvetica;-inkscape-font-specification:Helvetica;writing-mode:lr-tb;fill:#000000;fill-opacity:1;fill-rule:nonzero;stroke:none"
         transform="matrix(1,0,0,-1,322.2,115.68)"><tspan
           id="tspan4441"
           sodipodi:role="line"
           y="0"
           x="0 6.6719999 10.008">0.8</tspan></text>
<path
         inkscape:connector-curvature="0"
         id="path4443"
         style="fill:none;stroke:#000000;stroke-width:0.75;stroke-linecap:round;stroke-linejoin:round;stroke-miterlimit:10;stroke-dasharray:none;stroke-opacity:1"
         d="m 255.6,36 52.2,0 0,97.2 -52.2,0 0,-97.2 z" /></g><g
       id="g4445"
       transform="translate(-17,-31)" /><path
       d="m 326.8,5 109.33782,0 0,111.6 -109.33782,0 0,-111.6 z"
       style="fill:#ffffff;fill-opacity:1;fill-rule:nonzero;stroke:none"
       id="path4449"
       inkscape:connector-curvature="0" /><text
       transform="scale(1,-1)"
       style="font-variant:normal;font-weight:normal;font-size:12px;font-family:Helvetica;-inkscape-font-specification:Helvetica;writing-mode:lr-tb;fill:#000000;fill-opacity:1;fill-rule:nonzero;stroke:none"
       id="text4451"
       x="308.50992"
       y="-105.09"><tspan
         x="350.53391 354.52991 361.20193 364.53793 371.54593 374.88193 381.55392 388.22592 394.89792"
         sodipodi:role="line"
         id="tspan4453">(n = 360)</tspan></text>
<g
       id="g4455"
       transform="translate(-17,-31)"><path
         inkscape:connector-curvature="0"
         id="path4457"
         style="fill:#4d4d4d;fill-opacity:1;fill-rule:nonzero;stroke:#000000;stroke-width:0.75;stroke-linecap:round;stroke-linejoin:round;stroke-miterlimit:10;stroke-dasharray:none;stroke-opacity:1"
         d="m 382.8,36 17.4,0 0,69.99 -17.4,0 0,-69.99 z" /><path
         inkscape:connector-curvature="0"
         id="path4459"
         style="fill:none;stroke:#000000;stroke-width:0.75;stroke-linecap:round;stroke-linejoin:round;stroke-miterlimit:10;stroke-dasharray:none;stroke-opacity:1"
         d="m 417.6,36 0,83.99" /><path
         inkscape:connector-curvature="0"
         id="path4461"
         style="fill:none;stroke:#000000;stroke-width:0.75;stroke-linecap:round;stroke-linejoin:round;stroke-miterlimit:10;stroke-dasharray:none;stroke-opacity:1"
         d="m 417.6,36 7.2,0" /><path
         inkscape:connector-curvature="0"
         id="path4463"
         style="fill:none;stroke:#000000;stroke-width:0.75;stroke-linecap:round;stroke-linejoin:round;stroke-miterlimit:10;stroke-dasharray:none;stroke-opacity:1"
         d="m 417.6,57 7.2,0" /><path
         inkscape:connector-curvature="0"
         id="path4465"
         style="fill:none;stroke:#000000;stroke-width:0.75;stroke-linecap:round;stroke-linejoin:round;stroke-miterlimit:10;stroke-dasharray:none;stroke-opacity:1"
         d="m 417.6,77.99 7.2,0" /><path
         inkscape:connector-curvature="0"
         id="path4467"
         style="fill:none;stroke:#000000;stroke-width:0.75;stroke-linecap:round;stroke-linejoin:round;stroke-miterlimit:10;stroke-dasharray:none;stroke-opacity:1"
         d="m 417.6,98.99 7.2,0" /><path
         inkscape:connector-curvature="0"
         id="path4469"
         style="fill:none;stroke:#000000;stroke-width:0.75;stroke-linecap:round;stroke-linejoin:round;stroke-miterlimit:10;stroke-dasharray:none;stroke-opacity:1"
         d="m 417.6,119.99 7.2,0" /><text
         id="text4471"
         style="font-variant:normal;font-weight:normal;font-size:12px;font-family:Helvetica;-inkscape-font-specification:Helvetica;writing-mode:lr-tb;fill:#000000;fill-opacity:1;fill-rule:nonzero;stroke:none"
         transform="matrix(1,0,0,-1,432,31.69)"><tspan
           id="tspan4473"
           y="0"
           x="0">0</tspan></text>
<text
         id="text4475"
         style="font-variant:normal;font-weight:normal;font-size:12px;font-family:Helvetica;-inkscape-font-specification:Helvetica;writing-mode:lr-tb;fill:#000000;fill-opacity:1;fill-rule:nonzero;stroke:none"
         transform="matrix(1,0,0,-1,432,52.69)"><tspan
           id="tspan4477"
           sodipodi:role="line"
           y="0"
           x="0 6.6719999 10.008">0.2</tspan></text>
<text
         id="text4479"
         style="font-variant:normal;font-weight:normal;font-size:12px;font-family:Helvetica;-inkscape-font-specification:Helvetica;writing-mode:lr-tb;fill:#000000;fill-opacity:1;fill-rule:nonzero;stroke:none"
         transform="matrix(1,0,0,-1,432,73.69)"><tspan
           id="tspan4481"
           sodipodi:role="line"
           y="0"
           x="0 6.6719999 10.008">0.4</tspan></text>
<text
         id="text4483"
         style="font-variant:normal;font-weight:normal;font-size:12px;font-family:Helvetica;-inkscape-font-specification:Helvetica;writing-mode:lr-tb;fill:#000000;fill-opacity:1;fill-rule:nonzero;stroke:none"
         transform="matrix(1,0,0,-1,432,94.68)"><tspan
           id="tspan4485"
           sodipodi:role="line"
           y="0"
           x="0 6.6719999 10.008">0.6</tspan></text>
<text
         id="text4487"
         style="font-variant:normal;font-weight:normal;font-size:12px;font-family:Helvetica;-inkscape-font-specification:Helvetica;writing-mode:lr-tb;fill:#000000;fill-opacity:1;fill-rule:nonzero;stroke:none"
         transform="matrix(1,0,0,-1,432,115.68)"><tspan
           id="tspan4489"
           sodipodi:role="line"
           y="0"
           x="0 6.6719999 10.008">0.8</tspan></text>
<path
         inkscape:connector-curvature="0"
         id="path4491"
         style="fill:none;stroke:#000000;stroke-width:0.75;stroke-linecap:round;stroke-linejoin:round;stroke-miterlimit:10;stroke-dasharray:none;stroke-opacity:1"
         d="m 365.4,36 52.2,0 0,97.2 -52.2,0 0,-97.2 z" /></g><g
       id="g4493"
       transform="translate(-17,-31)" /><g
       id="g4495"
       transform="translate(-17,-31)" /><g
       id="g4497"
       transform="translate(-17,-31)" /><g
       id="g4499"
       transform="translate(-17,-31)" /><text
       y="-179.78999"
       x="273.14145"
       id="text5023"
       style="font-variant:normal;font-weight:normal;font-size:12px;font-family:Helvetica;-inkscape-font-specification:Helvetica;writing-mode:lr-tb;fill:#000000;fill-opacity:1;fill-rule:nonzero;stroke:none"
       transform="scale(1,-1)"><tspan
         y="-179.78999"
         id="tspan5025"
         sodipodi:role="line"
         x="273.14145">Response Phoneme</tspan></text>
<text
       transform="scale(1,-1)"
       style="font-variant:normal;font-weight:normal;font-size:12px;font-family:Helvetica;-inkscape-font-specification:Helvetica;writing-mode:lr-tb;fill:#000000;fill-opacity:1;fill-rule:nonzero;stroke:none"
       id="text5027"
       x="194.51599"
       y="-256.97449"><tspan
         x="194.51599"
         sodipodi:role="line"
         id="tspan5029"
         y="-256.97449">Context</tspan></text>
<text
       xml:space="preserve"
       style="font-style:normal;font-weight:normal;font-size:15.1254158px;line-height:125%;font-family:sans-serif;letter-spacing:0px;word-spacing:0px;fill:#000000;fill-opacity:1;stroke:none;stroke-width:1px;stroke-linecap:butt;stroke-linejoin:miter;stroke-opacity:1"
       x="-37.235859"
       y="-73.449104"
       id="text5045"
       sodipodi:linespacing="125%"
       transform="scale(1,-1)"><tspan
         sodipodi:role="line"
         id="tspan5047"
         x="-37.235855"
         y="-73.449104"
         style="text-align:center;text-anchor:middle">Proportion of</tspan><tspan
         sodipodi:role="line"
         x="-37.235859"
         y="-54.542336"
         id="tspan5049"
         style="text-align:center;text-anchor:middle">&quot;Question&quot;</tspan><tspan
         sodipodi:role="line"
         x="-37.235859"
         y="-35.635567"
         id="tspan5051"
         style="text-align:center;text-anchor:middle">responses</tspan></text>
</g></svg>